<?xml version="1.0" encoding="UTF-8"?>
<svg id="BehanceLogo" xmlns="http://www.w3.org/2000/svg" viewBox="0 0 608.39 608.39">
  <defs>
    <style>
      .cls-1 {
        fill: #fbf9ed;
        stroke-width: 0px;
      }
    </style>
  </defs>
  <g id="_4uSl9F.tif" data-name="4uSl9F.tif">
    <g>
      <path class="cls-1" d="M0,484.66V114.31c64.57,0,129.14,0,193.71,0,9.73,1.63,19.59,2.72,29.17,4.98,27.37,6.46,49.83,20.19,63.21,45.84,10.25,19.64,11.81,40.81,8.95,62.39-3.3,24.93-16.52,43.12-38.52,55.11-1.77.97-3.49,2.04-5.83,3.41,2.93,1.32,5.08,2.29,7.23,3.25,17.35,7.77,30.95,19.56,39.79,36.6,9.23,17.78,11.8,36.79,10.03,56.4-3.45,38.32-21.53,67.73-55.27,86.67-22.21,12.47-47.05,15.17-71.84,15.43-60.21.62-120.42.24-180.63.26ZM75.36,322.1v98.44c19.04,0,37.62.15,56.2-.04,17.59-.19,35.22-.09,52.76-1.3,23.5-1.62,39.06-14.76,43.1-36.27,1.54-8.19,1.44-16.94.56-25.27-1.3-12.31-8.1-21.6-19.05-27.68-10.12-5.62-21.25-7.68-32.54-7.82-32.44-.39-64.89-.27-97.34-.33-1.15,0-2.3.17-3.69.28ZM75.11,260.1c1.6.1,2.75.23,3.9.23,29.7,0,59.41.13,89.11-.13,6.88-.06,13.89-.8,20.57-2.38,12.13-2.86,23.63-7.24,29.06-20.03,3.82-9.01,4.42-18.5,2.93-27.97-2.2-14.02-10.08-23.44-24.27-26.64-6.92-1.56-13.98-3.34-21.01-3.48-32.66-.67-65.32-.81-97.99-1.1-.72,0-1.45.36-2.31.6v80.91Z"/>
      <path class="cls-1" d="M608.25,368.18h-201.69c-.34,38.77,22.48,64.29,60.61,67.48,16.31,1.37,32.33-.36,45.72-10.74,5.79-4.48,9.98-11,15.08-16.42,1.46-1.55,3.58-3.51,5.41-3.53,22.96-.22,45.93-.13,68.9-.09.55,0,1.09.34,2.01.65-1.94,14.83-9.17,27.15-18.07,38.61-27.85,35.85-66.05,49.21-109.88,49.89-41.09.64-77.57-11.68-107.96-39.83-17.63-16.32-27.03-37.3-31.44-60.51-7.17-37.76-6.67-75.25,7.73-111.41,16.06-40.3,46.45-64.69,88.34-74.32,37.78-8.68,74.8-5.72,109.72,12.17,27.58,14.13,45.08,37.37,56,65.73,10.08,26.21,9.95,53.74,9.53,82.29ZM408.01,320.39h124.18c-.39-31.41-20.95-54-54.29-57.3-38.56-3.82-63.56,16.58-69.89,57.3Z"/>
      <path class="cls-1" d="M389.08,177.24v-45.08h160.56v45.08h-160.56Z"/>
    </g>
  </g>
</svg>