<?xml version="1.0" encoding="UTF-8"?>
<svg id="FacebookLogo" xmlns="http://www.w3.org/2000/svg" viewBox="0 0 608.39 608.39">
  <defs>
    <style>
      .cls-1 {
        fill: #fbf9ed;
        stroke-width: 0px;
      }
    </style>
  </defs>
  <g id="_8pFXAD.tif" data-name="8pFXAD.tif">
    <path class="cls-1" d="M336.32,509.44h-75.22c-.07-1.73-.2-3.46-.2-5.19-.01-58.92,0-117.83,0-176.75v-5.3c-2.15,0-3.6,0-5.05,0-16.8,0-33.61.01-50.41-.02-2.52,0-5.04-.22-7.56-.34,0-24.32,0-48.64,0-72.95.79.1,1.57.29,2.36.29,19.2.02,38.41.02,57.61,0,.89,0,1.77-.23,3.04-.41,0-1.6,0-3.04,0-4.48,0-15.5-.3-31,.11-46.49.26-9.57.81-19.27,2.62-28.64,7.41-38.39,34.22-63.38,72.84-68.8,18.37-2.58,36.73-1.02,55.1-.11,6.34.32,12.65,1.06,18.95,1.6v65.26c-1.77,0-3.34-.02-4.9,0-14.39.23-28.8.11-43.17.81-13.14.63-21.31,7.44-24.67,19.59-.88,3.18-1.37,6.56-1.41,9.86-.19,16.3-.18,32.6-.21,48.89,0,.89.23,1.77.42,3.08h71.57c-3.16,24.52-6.26,48.54-9.41,72.95h-62.6v4.8c0,59.45,0,118.9,0,178.35,0,1.33.13,2.66.2,3.99Z"/>
  </g>
</svg>