<?xml version="1.0" encoding="UTF-8"?>
<svg id="Layer_1" data-name="Layer 1" xmlns="http://www.w3.org/2000/svg" version="1.1" viewBox="0 0 608.39 608.39">
  <defs>
    <style>
      .cls-1 {
        fill: #000;
        stroke-width: 0px;
      }
    </style>
  </defs>
  <g id="_7ULaNF.tif" data-name="7ULaNF.tif">
    <g>
      <path class="cls-1" d="M415.07,531.04h-221.47c-1.43-.27-2.86-.62-4.3-.78-12.4-1.36-24.54-4.11-35.78-9.43-48.72-23.04-74.99-61.61-75.74-115.56-.94-67.31-.26-134.65-.21-201.98.02-21.81,4.82-42.6,15.91-61.4,25-42.39,62.46-64.08,111.67-64.35,66.14-.35,132.29-.17,198.44.01,8.52.02,17.23.47,25.51,2.3,51.37,11.33,84.2,42.58,98.31,93.27,1.84,6.63,2.51,13.58,3.72,20.38v221.47c-.74,4.64-1.22,9.33-2.25,13.9-11.56,51.39-42.67,84.34-93.45,98.44-6.62,1.84-13.56,2.5-20.35,3.71ZM304.66,117.67c-32.92,0-65.84-.03-98.76.02-10.37.01-20.61,1.08-30.46,4.6-35.9,12.85-57.6,43.76-57.66,82.75-.11,66.13-.22,132.27.17,198.4.06,9.87,1.47,20.19,4.61,29.51,12.19,36.1,43.5,57.77,82.44,57.84,66.13.13,132.27.22,198.4-.17,9.87-.06,20.2-1.43,29.52-4.57,35.98-12.1,57.78-43.17,57.92-81.94.23-66.57.16-133.15.02-199.72-.06-29.73-12.05-53.69-36.25-71.19-15.36-11.11-32.83-15.58-51.63-15.54-32.77.05-65.54.01-98.31.01Z"/>
      <path class="cls-1" d="M421.22,304.29c-.05,64.24-52.94,117.04-117.04,116.85-64.34-.19-117.07-53.1-116.74-117.15.33-64.25,52.69-116.54,116.82-116.63,64.15-.09,117.01,52.75,116.96,116.93ZM304.12,227.69c-42.41.3-76.65,34.72-76.36,76.77.29,42.4,34.72,76.65,76.77,76.36,42.4-.29,76.65-34.73,76.36-76.77-.29-42.4-34.73-76.65-76.77-76.36Z"/>
      <path class="cls-1" d="M426.33,212.18c-16.22.11-29.74-13.27-29.73-29.42.01-16.03,13.16-29.21,29.31-29.36,16.24-.15,29.73,13.18,29.73,29.39,0,15.98-13.27,29.29-29.31,29.4Z"/>
    </g>
  </g>
</svg>