<?xml version="1.0" encoding="UTF-8"?>
<svg id="LinkedInLogo" xmlns="http://www.w3.org/2000/svg" viewBox="0 0 608.39 608.39">
  <defs>
    <style>
      .cls-1 {
        fill: #fbf9ed;
        stroke-width: 0px;
      }
    </style>
  </defs>
  <g id="U36ble.tif">
    <g>
      <path class="cls-1" d="M244.14,509.44c.02-89.01.04-178.01.05-267.02,0-2.16,0-4.32,0-6.85h81.41v36.68c1.12-.51,1.69-.57,1.87-.87,18.21-29.33,45.47-41.97,79.08-42.65,18.36-.37,36.31,1.96,53.16,9.88,22.44,10.54,35.03,29.05,41.99,52.09,5.5,18.22,7.46,37,7.59,55.88.37,53.1.23,106.21.28,159.31,0,.65-.13,1.29-.24,2.33h-84.92c0-2.05,0-4,0-5.95-.02-45.26.1-90.51-.19-135.77-.06-9.46-.92-19.05-2.64-28.36-5.24-28.34-23.55-37.62-49.37-34.67-23.93,2.73-37.15,16.83-40.79,42.77-1.31,9.39-1.92,18.95-1.97,28.43-.21,44.92-.12,89.84-.14,134.76h-85.18Z"/>
      <path class="cls-1" d="M105.85,509.44c-.03-57.59-.06-115.19-.08-172.78-.01-31.72,0-63.44,0-95.15,0-1.82,0-3.65,0-5.9h85.18c0,2.2,0,4.3,0,6.41,0,88.31,0,176.62,0,264.93,0,.83.06,1.66.09,2.5h-85.18Z"/>
      <path class="cls-1" d="M98.83,142.66c.85-3.18,1.56-6.41,2.56-9.54,7.5-23.46,30.22-37.26,55.15-33.58,23.16,3.42,40.9,24.41,40.94,48.44.04,24.21-17.31,44.94-41.02,49-26.48,4.53-51.8-13.4-56.62-40.06-.2-1.1-.67-2.15-1.01-3.22,0-3.67,0-7.35,0-11.02Z"/>
    </g>
  </g>
</svg>